<svg fill="none" height="800" viewBox="0 0 800 800" width="800" xmlns="http://www.w3.org/2000/svg" xmlns:xlink="http://www.w3.org/1999/xlink"><clipPath id="a"><path d="m60 53h740v747h-740z"/></clipPath><path d="m0 0h800v800h-800z" fill="#fee04a"/><g clip-path="url(#a)" fill="#323234"><path d="m228.333 897.225 3.773 26.841c1.023 7.282 2.046 14.564 3.74 21.763 1.818 8.175 3.98 16.325 6.469 24.418l1.927 6.485c.526 1.277 1.076 2.886 1.602 4.163l.608 1.947c.572 1.606 1.087 2.885 1.602 4.164l.561 1.607c.525 1.277 1.04 2.556 1.883 3.789l.901 1.559c1.311 2.184 2.306 4.411 3.956 6.539 1.649 2.12 3.828 5.54 5.948 8.63.771.93 1.767 1.64 2.894 2.08 1.126.43 2.345.56 3.539.39.668-.1 1.325-.19 1.606-.57.808-.31 1.542-.79 2.156-1.4s1.095-1.34 1.412-2.14c.406-.85.609-1.77.594-2.71s-.249-1.85-.682-2.68c-4.014-6.568-7.571-13.4-10.646-20.451-2.633-6.733-4.946-13.499-7.191-19.939-2.732-9.745-5.547-20.159-7.365-30.713-1.736-9.884-3.18-20.156-4.575-30.088l-.885-6.297c-.887-3.929-4.613-6.443-8.928-5.836-2.512 1.357-5.083 4.756-4.899 8.449zm5.737-81.867c-.609.432-1.139 1.511-1.373 2.225-1.408 6.133-2.343 12.365-2.797 18.64-.396 6.801-.789 13.612-1.091 21.08-.2 1.045.326 2.322.806 3.271.765.851 1.809 1.401 2.944 1.551 1.135.149 2.286-.111 3.245-.735.459-.35.839-.791 1.118-1.295s.451-1.061.503-1.635c.066-6.765.46-13.577 1.09-21.091.249-3.073.534-5.815.455-8.841l.584-10.222c.06-.902-.201-1.796-.737-2.523-.535-.728-1.311-1.243-2.189-1.455l-.997.14c-.609.432-.893.796-1.561.89zm49.255 210.932c-.786.61-1.43 1.38-1.89 2.27-.46.88-.725 1.85-.776 2.84-.186 1.85.317 3.71 1.413 5.21 4.39 4.77 9.11 9.52 13.795 13.93l.797.9c4.3 4.13 8.937 8.2 13.845 11.9 1.207.96 2.708 1.46 4.246 1.43 1.537-.03 3.017-.59 4.184-1.6.701-.51 1.281-1.17 1.701-1.93.42-.75.669-1.6.731-2.46.176-.92.14-1.87-.105-2.77s-.692-1.73-1.309-2.44c-5.094-5.02-10.154-9.71-15.214-14.41l-4.299-4.13c-2.354-2.37-4.72-4.74-7.13-7.43-.78-1.03-1.825-1.83-3.024-2.32s-2.507-.65-3.787-.45c-1.16.23-2.249.73-3.178 1.46zm-9.556-65.523c-.758.311-1.44.785-1.996 1.388-.555.603-.972 1.32-1.22 2.102-.811 1.465-.532 3.447.029 5.054l8.203 15.062 1.323 2.181 1.743 2.793c.901 1.559 1.744 2.792 2.598 4.023l.855 1.231 2.166 3.415 1.229 1.513c.843 1.231 1.651 2.131 2.494 3.371l1.229 1.51c2.506 3.37 5.281 6.35 8.08 9.34.843 1.23 2.272 1.7 3.691 2.18.328-.04 1.031.19 1.371.15.7-.09 1.375-.32 1.985-.68.61-.35 1.143-.82 1.568-1.39.424-.56.732-1.2.904-1.89.172-.68.206-1.39.098-2.09-.15-.92-.502-1.79-1.029-2.56-5.749-7.538-11.136-15.349-16.143-23.401l-1.369-2.51c-3.159-5.631-6.272-10.933-9.092-16.623-.313-.76-.788-1.442-1.393-1.997-.605-.556-1.325-.972-2.108-1.218-1.068-.538-2.279-.724-3.458-.531-.423-.622-1.08-.529-1.748-.436zm68.88 109.883c.465 3.31 3.533 5.91 7.18 5.4.838-.09 1.648-.35 2.381-.76.733-.42 1.373-.98 1.881-1.65.507-.67.871-1.44 1.07-2.26.198-.82.226-1.67.082-2.5-.235-1.67-1.124-3.18-2.47-4.19-1.347-1.02-3.042-1.45-4.712-1.22-1.642.29-3.114 1.19-4.119 2.52s-1.466 3-1.293 4.66zm663.261-277.637-1.72 9.366-.58 3.118c-.36 2.021-.87 4.012-1.53 5.955l-.62 2.79c-5.437 19.011-10.931 37.684-16.988 54.738-.2 1.045-.716 2.134-1.235 3.211-1.056 2.181.021 5.079 2.492 5.736.705.248 1.418.471 2.414.331.817-.087 1.592-.402 2.238-.91.646-.507 1.135-1.186 1.413-1.959 1.717-4.63 3.725-9.647 5.383-14.615 1.671-4.959 3.293-10.257 4.633-15.169 1.14-3.879 2-7.372 3.16-11.253l.62-2.79c1.33-4.922 2.61-10.16 3.97-15.074 1.76-6.669 3.15-13.621 4.88-22.975.12-.515.11-1.053-.02-1.565-.13-.513-.39-.986-.74-1.377-.35-.455-.79-.833-1.29-1.11-.51-.277-1.06-.448-1.63-.501-2.71.034-4.51 1.638-4.85 4.053zm-35.334 102.242c-2.987 7.511-6.288 15.412-9.286 22.925-1.281 2.882.227 6.377 3.063 7.33 1.091.528 2.087.388 3.072.25.669-.094.997-.141 1.618-.574.679-.285 1.292-.709 1.799-1.243.508-.535.899-1.169 1.148-1.862 3.465-6.573 6.18-13.711 8.944-20.509l1.045-2.18c.304-.75.455-1.553.443-2.362-.011-.809-.184-1.608-.509-2.349s-.795-1.41-1.382-1.966c-.587-.557-1.28-.99-2.038-1.275-1.09-.528-2.075-.39-3.072-.25-1.899.949-3.741 2.224-4.845 4.065zm-3.193-29.948c-3.408 8.367-6.618 16.812-9.629 25.329-.47 1.417.138 3.364 1.555 3.835 1.418.471 3.366-.126 3.847-1.557 3.188-8.543 6.76-16.818 9.946-25.373.81-1.465-.125-3.355-1.59-4.165-.388-.292-1.045-.2-1.713-.106-.985.139-1.886.958-2.416 2.037zm-21.432 90.495-3.898 5.952c-6.131 9.293-12.542 18.982-18.954 28.661-1.431 1.898-1.06 4.537.885 6.296 1.079.53 2.168 1.047 3.493.861.997-.14 2.274-.666 2.804-1.746 7.992-11.408 15.476-23.165 22.43-35.235.574-.762.762-1.804.624-2.79-.138-.985-.62-1.945-1.369-2.51-.441-.354-.947-.617-1.491-.772-.543-.156-1.112-.201-1.674-.134-1.325.186-2.274.666-2.85 1.417zm-380.526-231.927c-3.021 22.31-7.247 44.439-12.66 66.291-.2 1.739.29 3.486 1.365 4.867 1.171 1.186 2.694 2.324 4.382 2.421.68-.095 1.056.198 1.713.106 1.325-.186 2.274-.666 3.178-1.463 1.204-1.206 2.046-2.724 2.433-4.384 2.341-9.799 5.109-21.333 7.172-33.114l.532-3.447c.895-3.854 1.476-7.775 1.736-11.723l-.048-.34c.297-2.732.628-5.146.584-7.843.25-3.072.112-6.437.361-9.509.063-1.507-.385-2.99-1.273-4.21-.843-1.232-2.262-1.714-3.644-1.855-.329.046-1.033-.201-1.373-.153-2.65.372-4.409 2.317-4.458 4.356zm-.689-69.819c-1.303.992-2.184 2.44-2.467 4.054.115 5.173.164 10.348.149 15.523-.004 4.736.6 9.04.923 13.718l.186 1.325c.233 1.653 1.122 3.214 2.259 4.071.731.612 1.578 1.07 2.49 1.349.912.278 1.87.371 2.819.272.866-.13 1.698-.431 2.447-.886.748-.454 1.4-1.052 1.916-1.76.537-.691.931-1.482 1.159-2.327s.286-1.727.17-2.594c-.505-8.36-1.234-18.397-1.633-28.47-.419-2.978-2.738-5.02-5.528-5.644-.669.094-1.045-.2-1.713-.106-1.277.526-2.237 1.008-3.177 1.475zm-103.708-596.0917-2.7 2.4005c-6.981 5.7161-12.44 12.558-16.398 20.5517-1.846 3.6317-4.031 7.311-5.558 10.9094-3.62 7.9347-7.192 16.2091-10.81 24.1551-7.146 16.537-12.863 33.544-18.59 50.563-5.145 15.536-9.935 31.188-14.364 46.944-5.873 20.747-12.084 41.553-17.955 62.311-5.684 19.705-9.948 39.902-13.498 60.334-6.811-2.773-13.912-5.147-20.721-7.909-13.196-4.901-26.11-10.177-39.024-15.453-13.957-5.465-28.537-10.518-42.776-15.608-6.967-2.306-13.861-4.826-20.672-7.558-6.87-2.858-13.88-5.369-21.003-7.523-1.758-.434-3.879-1.141-5.591-1.247l-5.064.042-.657.093c-2.614.713-5.171 1.743-7.261 3.722-2.135 1.652-3.839 3.912-5.598 5.857-2.925 4.362-5.216 9.116-6.804 14.122-1.623 5.298-3.199 10.925-4.073 16.787-1.237 5.579-2.111 11.441-2.973 17.302-.484 3.787.403 7.716 2.532 10.789.686 7.341 5.695 14.063 12.506 16.836 16.183 6.838 32.835 12.258 49.818 17.644 15.939 5.185 31.891 10.381 48.123 15.191 30.379 9.242 60.85 19.142 91.264 28.715l.716.245 3.55 1.188c18.026 5.573 36.286 10.433 53.901 15.383l14.043 3.778c13.724 3.811 27.402 7.293 41.033 10.436 9.131 2.436 18.216 4.543 27.685 6.919l10.548 2.906c12.308 3.352 24.614 6.681 37.249 9.975l4.208 1.095 27.262 6.296s17.886 4.578 26.642 6.731c14.767 3.999 29.864 7.964 44.666 12.293l22.2 6.35c3.551 1.187 7.384 2 11.217 2.812 5.204.955 10.643 1.195 14.867-2.436 3.542-3.827 6.249-8.349 7.951-13.278 1.563-3.257 2.798-6.468 3.703-9.644.718-2.122 1.388-4.584 1.778-6.659.424-1.746.472-3.786.24-5.439.107-1.701-.465-3.307-1.027-4.926-.935-1.889-2.164-3.403-3.065-4.962-1.429-1.712-3.118-3.189-5.004-4.378-1.895-1.409-3.735-2.501-5.634-3.932-6.326-4.169-12.9-7.646-19.191-11.485-7.382-4.367-14.706-8.408-22.087-12.775-10.638-5.931-21.277-11.862-32.526-17.372-7.618-3.664-15.575-7.281-23.179-10.936 1.856-3.633 3.326-7.558 5.181-11.203 3.62-7.934 7.286-15.541 10.906-23.475 6.662-15.13 13.712-29.968 20.047-45.04 13.14-31.573 24.488-63.9 37.968-95.521 6.288-15.412 13.28-30.577 19.193-46.271 3.774-9.307 6.48-18.811 8.881-28.272 1.048-4.536 1.394-9.308.414-13.894-.485-2.53-1.491-4.932-2.954-7.052-1.463-2.121-3.351-3.914-5.544-5.266-4.067-2.477-8.461-4.897-12.726-6.318-15.093-6.321-30.565-10.568-46.175-15.8-8.134-2.576-16.372-5.806-24.553-8.7104-7.477-2.6678-14.707-6.0403-22.478-8.3319-20.192-6.5914-40.804-11.8163-61.698-15.6393-19.752-3.3103-39.479-6.6124-59.03-10.9558-2.79-.6241-5.626-1.5767-8.802-2.4816-3.437-2.3087-7.218-4.0577-11.203-5.1816-1.984-.6481-4.094-.8147-6.155-.4862-2.041-.0596-3.986.5603-5.171 1.7431z"/><path d="m368.314 406.383c-10.247 8.512-20.039 17.556-29.337 27.094-8.487 9.3-16.282 18.838-23.643 28.996s-14.781 19.978-21.802 30.088c-7.034 10.101-13.035 20.403-19.307 31.078-3.806 6.609-7.611 13.23-11.076 19.803-2.385 4.724-4.806 9.106-7.18 13.829l-1.584 3.271c-5.04 9.832-10.079 19.664-14.371 30.049-3.372 7.23-6.335 15.072-9.568 23.299-6.262 15.719-12.037 31.628-17.317 47.705-4.048 12.037-7.343 24.661-10.685 36.956-3.108 11.582-5.827 23.455-7.903 35.226-3.984 24.521-6.601 49.244-7.84 74.056-.703 11.925-1.339 24.163-.998 36.288.162 13.143-.017 26.334 1.188 39.676 1.088 12.559 2.51 25.087 4.264 37.57l2.375 16.897c.883 6.285 1.768 12.582 3.264 18.458 1.691 7.188 3.711 14.33 5.733 21.484 1.822 5.818 3.986 11.6 6.161 17.381 2.161 5.763 4.936 11.123 7.391 16.513 2.456 5.4 5.183 10.42 7.91 15.44 3.206 5.97 6.411 11.93 10.286 17.81 3.441 5.25 7.222 10.46 11.274 15.3 4.063 4.83 8.409 9.29 12.8 14.08 4.778 5.07 10.155 9.71 15.26 14.74 8.551 7.92 17.442 15.79 26.894 22.89 4.908 3.7 10.112 7.04 15.313 10.36 5.201 3.31 11.446 6.82 17.306 10.06 5.869 3.22 11.635 5.79 17.448 8.7 5.824 2.9 11.543 5.13 17.601 7.32 10.735 4.23 22.045 7.71 33.308 10.85 13.057 3.91 26.359 7.1 39.663 10.3 5.579 1.24 11.497 2.43 17.406 3.63 5.92 1.2 11.51 2.44 17.325 2.97 24.605 3.3 49.374 5.24 74.194 5.79 13.202.18 26.754.29 39.908.13 11.795-.31 23.543-.94 35.245-1.9 24.106-1.71 48.354-4.78 72.555-8.18 24.202-3.4 48.415-6.8 71.962-12.48 25.295-5.24 49.9-13.09 73.591-22.5 12.015-5.47 23.545-11.95 34.466-19.37 9.778-6.28 18.96-13.45 27.434-21.41 18.404-17.66 35.038-37.08 49.663-57.99 7.597-10.86 14.83-22.01 20.962-33.69 5.943-10.624 11.184-21.489 16.753-32.4 11.014-21.234 21.284-42.846 30.794-64.797 4.9-10.817 9.75-21.974 13.57-33.319 4.05-12.05 7.74-24.382 11.08-36.667 2.77-11.544 4.89-22.987 6.61-34.721 1.69-12.052 2.62-24.678 2.61-36.837-.18-6.061-.31-11.783-1.14-17.74l-1.17-8.279c-1.38-7.594-4.13-14.876-8.1-21.497-1.69-2.465-3.4-4.928-5.72-6.969-2.31-2.042-4.52-3.407-7.41-4.698-1.84-.775-3.74-1.412-5.67-1.905l-6.25-1.143c-4.49-.72-8.85-.442-13.12.493-5.26 1.086-10.38 3.145-15.071 5.837.377-2.086.72-4.49.722-6.858.202-3.412.112-6.437.314-9.849-.183-3.681-.649-7-1.488-10.589-.574-1.617-1.135-3.224-1.742-5.16-.897-2.019-2.071-3.902-3.489-5.596-3.781-5.208-9.403-9.142-15.992-10.248-8.426-1.627-17.152-.518-24.904 3.165-7.059 3.711-13.353 8.721-18.551 14.768-2.667 2.811-5.068 5.862-7.173 9.115l-1.386 2.216c-.797-.904-1.312-2.183-2.118-3.074-3.209-3.603-7.274-6.069-11.589-7.842-7.802-2.599-16.234-2.442-23.529.951-3.179 1.463-6.357 2.926-9.103 4.998-3.553 2.179-6.821 4.791-9.728 7.777-10.494 10.801-18.919 23.435-24.858 37.274-3.09 6.855-6.136 14.028-9.237 20.885-2.853 6.599-5.288 13.371-7.29 20.276-1.095 4.208-2.154 8.757-3.214 13.294-.52 3.446-1.05 6.904-1.536 10.679-.636 7.038-1.108 14.089-1.416 21.149-.344 4.783 3.239 8.668 7.739 9.375 2.135.224 4.274-.38 5.977-1.687 1.703-1.308 2.839-3.218 3.175-5.339.578-3.118 1.156-6.237 1.686-9.695.331-2.414 1.001-4.876 1.719-6.998l.248-.704.659-2.46c1.06-4.538 2.154-8.745 3.214-13.283 5.894-20.191 13.789-39.743 23.568-58.365 3.845-6.738 8.403-13.043 13.595-18.807 2.654-2.729 5.692-5.188 8.778-7.308 1.888-.947 3.789-1.884 6.016-2.878l4.644-.653 1.373.154c1.417.47 2.836.952 3.971 1.797l.762.575.387.292c.41.612.502 1.269.936 1.889l.557 3.964c-.633 6.832-1.952 13.583-3.936 20.151l-2.337 5.064-.707 2.12-.293.376c-3.373 7.23-6.697 14.8-9.38 22.257-1.716 4.629-3.094 9.212-4.153 13.749-.717 2.133-1.094 4.219-1.483 6.295-.444 1.779-.529 3.628-.252 5.44.232 1.653.806 3.27 2.024 4.785 1.183 1.185 2.319 2.042 3.783 2.841l.387.292c1.495.742 3.19.978 4.83.673 2.65-.373 4.831-1.696 6.533-3.968 3.289-5.52 5.804-11.625 7.674-17.628l1.189-3.539c2.715-7.138 4.621-12.81 6.572-18.154l.541-1.081 1.562-3.268.764-1.794c5.488-11.677 11.31-23.194 17.458-34.536 3.605-5.577 7.598-10.861 11.974-15.877 2.654-2.728 5.692-5.188 8.778-7.308 1.56-.9 3.507-1.509 5.114-2.07l5.968-.839c1.045.2 1.701.108 2.743.285l1.805.762.75.576c.761.563 1.229 1.514 2.038 2.416.42.611.514 1.279.981 2.218.712 2.603 1.085 5.253 1.117 7.951-.052 4.396-.443 8.839-1.164 13.329-.72 4.49-1.732 9.367-3.215 15.662-1.096 4.196-2.858 8.508-4.528 13.467-3.559 5.905-7.129 11.811-10.653 18.046-2.946 5.496-5.181 11.203-7.52 16.255l-2.997 7.524c-.418 1.333-.913 2.64-1.482 3.916l-.199 1.044-.235.714-.378 2.074-.436 1.748c-.189 1.043-.002 2.368.138 3.364.465 3.307 2.537 6.053 5.76 7.298 1.464.799 3.165.906 5.17.625 1.653-.233 3.259-.805 4.457-1.978 1.522-1.497 2.872-3.159 4.027-4.954l.292-.388.225-.701.292-.388c5.3-10.217 10.269-20.602 14.898-31.139l.799-1.464.248-.704c5.32-10.218 12.12-19.604 19.681-28.439 2.08-1.978 4.49-4.004 7.29-5.76 2.19-1.312 4.76-2.354 7.02-3.007l5.97-.839c3.07.249 5.82.532 8.61 1.156.71.248 1.75.425 2.51.999l1.89 1.421 3.69 4.552c1.79 3.121 2.91 6.347 4.04 9.56 1.41 7.574 2.53 15.524 2.26 23.322-.73 17.886-3.22 35.657-7.41 53.058-.86 3.505-1.72 6.998-2.25 10.456l.24-.716.18-1.041c-3.11 11.593-6.54 23.209-11.02 34.66-4.48 11.45-9.71 22.302-14.66 32.791-10.303 21.766-21.396 43.152-33.253 64.115l-.246.716-1.375 2.215-.292.387.586-.764-.54 1.093-.518 1.077-.281.386-4.323 7.699-2.149 4.02-1.092 1.84.574-.762-3.805 6.621c-3.155 5.878-6.516 11.643-10.078 17.284-5.847 8.933-11.13 17.113-17.154 24.703-11.427 15.14-23.603 29.71-36.482 43.64-6.209 6.28-13.145 12.31-20.114 18.02-7.017 5.38-14.421 10.46-22.197 15.29-9.679 5.74-20.154 10.59-30.722 14.78-11.892 4.37-23.889 8.09-33.025 10.38-35.337 9.02-71.144 16.09-107.26 21.16-10.612 1.49-21.88 3.07-33.864 4.41-11.983 1.35-24.963 2.84-38.365 3.71-10.392.75-20.797 1.31-31.21 1.68l-6.389.23.985-.14-5.066.03-5.064.04c-23.635.29-47.493-1.1-73.154-3.23-24.682-2.6-49.097-7.31-72.978-14.06-14.382-3.72-28.903-8.44-42.871-13.9-7.528-3.03-14.972-6.26-22.323-9.69-5.467-2.65-10.83-5.5-16.077-8.55l-1.09-.53c-5.917-3.56-10.404-6.65-14.844-9.4-4.453-2.75-8.319-6.26-12.476-9.39-8.365-6.59-16.211-14.27-23.965-21.29l-1.171-1.18c-3.923-3.84-9.077-9.2-13.889-14.6-2.821-3.18-5.437-6.53-7.833-10.04-2.131-3.09-3.454-5.27-5.152-7.73l-.843-1.24c-2.728-4.49-5.292-9.08-7.686-13.77-2.307-4.41-4.67-9.15-7.126-14.54l-.467-.94c-2.407-4.998-4.589-10.101-6.538-15.295-2.116-5.443-3.905-10.943-5.693-16.431-.897-3.916-2.16-8.139-3.047-12.068-.992-4.595-2.018-9.509-2.717-14.481-1.446-7.904-2.281-16.229-3.398-24.179l-.791-5.629c-.778-7.998-2.08-17.262-2.774-26.969-.541-8.701-.802-17.788-1.295-28.528.202-25.02 1.482-49.522 3.969-72.831 1.39-12.316 3.044-24.6 4.962-36.845.672-4.829 1.721-9.365 2.735-14.231l.612-2.789c1.437-6.623 2.875-13.235 4.64-19.904l.39-2.076c3.353-12.297 6.872-23.255 10.118-33.851 3.245-10.596 7.726-22.023 11.63-32.7l.539-1.092c3.656-9.984 8.09-21.74 13.271-32.943 5.193-11.205 10.105-22.024 16.145-34.352 6.568-13.419 14.367-27.692 23.258-43.805l.857-1.137c3.806-6.609 7.611-13.23 11.791-19.558 5.274-8.167 10.604-16.007 15.924-23.845l.81-1.465c4.462-6.714 8.936-13.417 14.065-20.224l7.983-10.581c2.278-3.022 4.932-5.751 7.584-8.491l.292-.388c6.222-6.268 12.534-11.89 18.555-17.124l1.513-1.229c2.605-2.192 4.28-5.293 4.684-8.674s-.492-6.789-2.508-9.533c-1.436-1.779-3.315-3.149-5.448-3.974-2.132-.826-4.444-1.076-6.704-.728-5.922 1.168-7.811 2.103-9.336 3.333z"/><path d="m579.274 463.882c-3.147 1.428-5.675 3.939-7.124 7.076-1.067 2.241-1.306 4.786-.676 7.186.14.997.608 1.947.747 2.933 1.601 4.163 3.251 8.666 4.512 12.878l1.087 2.884c1.029 2.558 1.697 4.843 2.396 7.436l.14.996c1.402 5.208 2.533 10.789 3.652 16.372.993 4.595 1.597 8.899 2.25 13.542l.557 3.964c1.961 11.544 3.591 23.142 4.888 34.779 2.44 22.293 3.154 44.135 4.221 68.654.232 1.653.147 3.351.04 5.052l.14.997-.002 2.368c.003 19.251-.382 40.59-1.392 64.707-.446 11.207-1.14 23.119-1.785 35.371-.878 10.598-1.804 20.857-2.728 31.126l-.108 1.701-1.01 11.957c-.828 8.57-1.658 17.129-2.442 26.016l-.188 1.043c-.392 4.443 2.535 8.421 6.99 8.811 2.087.388 4.351-.265 5.876-1.496 1.577-1.31 2.638-3.137 2.994-5.156 2.485-11.159 4.269-22.542 6.096-33.62 1.828-11.067 3.601-22.449 4.771-33.435 2.944-22.356 4.516-44.866 6.074-67.386.786-11.255 1.572-22.51 2.029-33.719.317-12.206.248-24.692-.137-37.133-.41-12.45-.714-24.222-1.768-36.57-.633-11.737-2.215-22.994-3.845-34.591-1.722-12.253-3.784-24.459-6.491-36.575-3.327-13.866-7.614-27.483-12.831-40.754-1.23-2.658-3.283-4.85-5.855-6.252s-5.527-1.94-8.427-1.534c-.434-.62-1.373-.154-2.651.372z"/><path d="m568.471 836.926c1.308 6.919 7.783 12.072 14.737 11.094 16.967-2.038 34.344-3.464 51.017-5.137l20.366-1.846c23.357-2.266 47.405-4.295 71.229-5.622 15.769-.865 31.164-2.012 46.899-3.207l8.699-.553 9.041-.589c6.026-.512 11.712-.977 17.774-1.147l2.368.002c8.044-.449 16.755-1.004 25.045-2.169 1.823-.304 3.498-1.191 4.774-2.528s2.084-3.052 2.303-4.887c.187-1.1.114-2.229-.212-3.296-.327-1.067-.898-2.043-1.668-2.85-1.277-1.853-3.445-2.899-5.531-3.276l-1.373-.154c-5.169-.624-10.222-.584-15.297-.541-5.54.042-11.08-.08-16.613-.367-11.174-.128-22.346-.244-33.484-.029l1.373.153c-24.668.083-49.196 1.163-74.053 2.289-23.201.905-46.558 3.171-69.575 5.389-13.32 1.526-27.001 2.79-40.311 4.314l-6.682.605c-6.965.979-11.474 7.352-10.826 14.352zm212.089 41.46c.28 1.994 1.216 3.883 3.055 4.976 1.512 1.139 3.599 1.527 5.638 1.575l2.698-.033 1.993-.28c7.709-.166 15.411.561 22.952 2.168 1.419.482 3.176.905 4.63 1.717 1.1.515 1.897 1.419 2.659 1.993l.375.283.14.996c-.294.376-.201 1.033-.482 1.419l-2.56 3.397c-1.807 1.605-3.931 3.255-6.079 4.897-3.88 1.238-7.763 2.454-11.223 4.291-1.573.891-3.132 1.791-5.079 2.4l-.34.048c-1.379.803-2.722 1.666-4.025 2.587-2.088 1.991-3.371 4.862-2.996 7.523.278 1.982 1.167 3.543 2.69 4.68.88.715 1.895 1.243 2.985 1.555 1.09.311 2.231.398 3.356.257 2.978-.419 6.204-1.542 9.054-2.959l.657-.092c2.942-.76 5.874-1.507 9.192-1.974 2.322-.326 4.644-.652 6.673-.591l4.125.425.705.248.76.562.377.294c.046.329.432.609.478.938-.06 2.041-.403 4.445-1.108 6.577-2.341 7.42-5.443 14.277-9.192 21.213-4.052 7.325-7.996 12.95-11.601 18.526-4.566 6.047-9.498 11.798-14.814 17.28l-1.478 1.56c-4.179 3.959-8.064 7.542-11.713 10.423-4.27 3.305-8.541 6.605-13.244 9.295-4.365 2.64-8.822 4.62-13.279 6.59-4.774 2.03-9.946 3.77-16.104 5.64-6.203 1.55-12.465 2.77-18.715 3.98-6.297.89-12.98 1.49-21.738 1.7l-2.697.05-2.369-.02c-1.953-.01-3.901-.18-5.825-.52l-2.742-.28c-4.548-.36-9.06-1.08-13.492-2.16l-2.087-.39c-2.122-.71-4.536-1.05-6.715-2.09-4.108-1.26-8.149-2.72-12.108-4.38-3.414-1.31-6.776-2.76-10.077-4.33l-1.089-.51c-2.18-1.05-4.019-2.14-6.199-3.19-7.319-4.68-14.538-9.526-21.651-14.52-8.704-6.013-17.065-12.507-25.046-19.451-2.368-2.398-4.637-4.891-6.802-7.475-2.073-2.757-4.157-5.501-5.9-8.294-2.353-3.821-4.384-7.831-6.074-11.989-2.017-4.591-3.701-9.321-5.038-14.155-.586-1.493-1.483-2.844-2.632-3.963s-2.523-1.98-4.031-2.526c-3.002-1.179-6.344-1.146-9.322.091s-5.359 3.582-6.642 6.541c-1.173 3.043-1.185 6.412-.033 9.463 2.454 7.762 5.553 15.434 9.32 23.012 4.248 8.527 9.432 16.575 15.193 23.873 6.429 7.203 13.421 13.643 20.696 19.723 10.343 8.68 20.229 16.4 30.293 23.09 1.511 1.14 3.362 2.23 5.202 3.33l2.554 1.32c2.976 1.95 6.244 3.51 9.175 5.14l2.882 1.28c5.062 2.32 10.078 4.32 15.093 6.32l2.508 1c1.794.76 3.553 1.19 5.298 1.62l2.462.67c2.46.66 4.536 1.05 6.998 1.72l.339-.05 1.418.47 3.118.58c6.22 1.1 12.522 1.69 18.839 1.74l2.709-.03c3.364-.14 7.103 0 10.796-.18 4.023-.22 7.341-.69 10.706-.82l2.978-.42c4.983-.7 9.907-1.74 15.783-3.24 13.064-3.19 25.627-7.64 37.203-14.35 6.594-3.62 12.799-7.54 18.585-12.06 4.891-3.74 9.68-8.12 14.094-12.79 20.995-21.532 36.909-47.744 45.744-76.345.67-2.461 1.34-4.923 1.625-7.666.72-4.489.443-8.839-.818-13.05-.634-2.257-1.621-4.398-2.925-6.345-1.309-1.933-2.918-3.644-4.766-5.07-1.511-1.139-2.976-1.95-4.441-2.76l-.34.048c1.339-2.556 2.293-5.381 2.917-8.171l.004-4.735c.108-1.702-.747-2.933-1.309-4.551-1.568-3.447-4.091-6.371-7.271-8.426-3.029-2.215-6.472-3.801-10.125-4.663-4.061-1.125-8.237-1.782-12.448-1.958-8.43-.496-16.886-.327-25.29.506-3.366 2.506-5.891 6.233-5.66 10.265zm44.374 12.681.108-1.701c.092.657-.154 1.373-.108 1.701zm-.096 1.7c.048.339-.246.716-.199 1.044zm-.528 1.09c-.28.386-.517 1.089-.799 1.464zm-454.061-387.098c-3.084 2.132-4.94 5.776-5.427 9.54-.912 12.348-.638 24.754.818 37.049.327 2.322.934 4.258 1.588 6.533l.187 1.325 1.973 6.814c1.087 2.884 2.879 6.016 4.576 8.48 3.915 5.954 9.652 10.479 16.353 12.9 3.597 1.516 7.43 2.328 11.497 2.427 2.37.013 5.079-.021 7.434-.029l.996-.14c1.993-.28 3.601-.841 5.548-1.449l1.277-.526c3.59-1.229 6.99-2.955 10.101-5.127 3.414-2.166 6.452-4.626 9.058-7.694 6.22-6.279 10.883-14.026 14.115-22.252 2.247-5.709 3.824-11.336 5.013-17.254.92-5.534 1.548-10.681 1.753-16.45.107-1.55-.26-3.096-1.052-4.432-.793-1.337-1.972-2.401-3.383-3.051-1.19-.523-2.504-.691-3.787-.485-2.322.327-4.797 2.026-5.504 4.146-1.044 2.18-1.716 4.63-2.761 6.809l-2.762 6.81c-1.528 3.587-3.384 7.231-5.241 10.864l-.563.761c-1.386 2.216-2.713 4.77-4.428 7.032-1.995 2.648-4.33 5.344-6.316 7.979-2.088 1.991-4.517 4.018-6.969 5.714-1.845.977-3.763 1.81-5.736 2.492l-2.99.42c-1.044-.199-1.701-.107-2.742-.284-1.045-.2-1.794-.764-2.508-.999-.716-.246-1.137-.856-1.888-1.432-.76-.563-.806-.891-1.182-1.185-.947-1.888-1.554-3.824-2.502-5.723-.794-3.261-1.26-6.579-1.725-9.886-.466-3.318-.545-6.345-.637-9.381l-.184-1.313c-.042-5.064.256-10.176.555-15.277.381-3.809-.636-7.627-2.861-10.742-4.965-6.405-13.91-7.515-19.705-2.982zm-122.388 14.51c-12.559 2.1-24.777 4.152-37.242 6.92-25.623 5.287-51.211 10.905-76.508 18.513-6.168 1.884-12.278 4.094-18.4 6.305-6.065 2.539-12.081 5.417-17.7346 8.579-5.6323 3.147-11.9426 6.402-17.5385 9.891-2.4638 1.697-4.6567 3.022-7.1093 4.717-2.1502 1.685-4.1522 3.55-5.9839 5.576-1.4227 1.875-2.1408 3.997-2.8572 6.13-.5801 2.682-.3082 5.478.7775 7.998 1.8489 3.459 3.9671 6.534 7.0487 9.149 3.0816 2.616 6.4197 4.838 10.0165 6.354 3.3161 1.901 6.527 3.136 10.1254 4.663 5.7187 2.233 11.1094 4.513 17.1214 6.371 12.551 3.952 25.4 6.889 38.421 8.782 6.917 1.06 14.161 2.063 21.406 3.078 7.245 1.014 14.487 2.006 21.686 2.692 6.483.44 12.966.88 19.834 1.601 8.004 1.018 16.079 1.351 24.139.996 2.858-.413 5.504-1.747 7.536-3.8 2.031-2.053 3.337-4.713 3.719-7.576.356-3.406-.604-6.819-2.683-9.542-2.078-2.722-5.119-4.546-8.498-5.101-1.758-.422-3.457-.519-5.17-.624l-4.442-.381-5.123-.296c-4.104-.44-8.229-.865-12.062-1.677l-3.786-.484c-10.328-1.251-20.597-2.175-30.539-3.146l-14.348-1.021c-6.155-.486-12.638-.926-18.791-1.401-9.918-.981-19.757-2.646-29.445-4.985-7.062-2.03-13.9708-4.56-20.674-7.569l-2.8824-1.281c6.9209-3.675 13.8414-7.351 21.1944-10.417 7.966-3.475 15.976-6.633 24.068-9.122 18.247-4.932 36.962-8.913 54.975-13.131l17.05-3.747c18.67-4.31 37.996-8.713 57.178-11.755l16.252-2.284 10.987-1.198c1.57-.214 3.081-.737 4.447-1.538s2.561-1.864 3.514-3.128c.954-1.264 1.648-2.705 2.043-4.239.395-1.533.482-3.13.257-4.698-.931-6.625-6.987-11.178-13.613-10.247-10.331 1.105-20.274 2.503-30.557 3.948l-8.947 1.257zm357.477 657.351c.791 5.63 1.242 11.31 1.741 17.33.288 4.34.553 8.7.549 13.43-.105 10.74-.401 21.48-.89 32.21-.538 10.55-.327 21.66-.55 32.16-.573 22.38-1.477 44.8-1.009 67.35.127 3.37-.017 7.11.119 10.46-.158 6.11.057 12.49-.101 18.6-.192 3.4-.065 6.76-.303 9.83-.015 2.36-.018 4.73-.348 7.14-1.233.85-2.464 1.7-3.754 2.22l-5.256 3.44c-3.415 2.17-6.827 4.34-10.581 6.56-6.875 4-13.328 8.63-19.782 13.24-6.441 4.62-13.469 10-19.875 14.95-3.027 2.46-6.067 4.91-8.777 7.32-3.65 2.87-6.924 6.03-10.479 9.58-.906 1.14-1.487 2.5-1.683 3.94-.196 1.45.001 2.91.57 4.25s1.489 2.5 2.662 3.36c1.174.86 2.558 1.38 4.006 1.52 2.074.38 4.35-.28 6.203-1.55 3.414-2.17 6.782-4.66 10.195-6.84l3.697-2.54 5.221-3.77 7.683-5.48 5.832-4.19c6.781-4.68 13.856-9.72 20.967-14.43l1.524-1.23c4.364-2.65 8.342-5.56 12.706-8.21 2.135-1.65 4.317-2.97 6.452-4.62 3.743-2.22 6.642-5.66 8.499-9.29.763-1.81 1.187-3.55 1.295-5.26.188-1.04.376-2.08.53-3.45.284-2.75.628-5.15.912-7.89.673-4.83 1.018-9.6 1.316-14.72 1.372-21.46 2.8-42.61 4.183-64.08.832-10.93 1.278-22.13 1.453-32.97.175-10.83.292-21.99.41-33.15-.025-9.79-.05-19.58-.122-29.71-.071-10.12-1.035-19.45-2.338-28.72-.297-3.09-1.787-5.93-4.152-7.93-2.365-2.01-5.419-3-8.511-2.79-3.087.29-5.939 1.78-7.945 4.14-2.007 2.37-3.01 5.42-2.795 8.52.291.37.473.81.526 1.27z"/></g></svg>