<svg fill="none" height="800" viewBox="0 0 800 800" width="800" xmlns="http://www.w3.org/2000/svg" xmlns:xlink="http://www.w3.org/1999/xlink"><clipPath id="a"><path d="m150 33.4746h500v733.051h-500z"/></clipPath><path d="m0 0h800v800h-800z" fill="#fee04a"/><g clip-path="url(#a)" fill="#323234"><path d="m234.167 455.35 1.886 13.42c.511 3.641 1.023 7.282 1.87 10.882.909 4.087 1.99 8.162 3.234 12.209l.964 3.242c.263.639.538 1.443.801 2.082l.304.973c.286.803.544 1.443.801 2.082l.28.804c.263.639.521 1.278.942 1.894l.45.78c.656 1.092 1.153 2.206 1.978 3.268s1.915 2.774 2.975 4.317c.385.464.883.821 1.446 1.038.564.216 1.173.283 1.77.196.334-.047.663-.093.803-.286.404-.155.771-.393 1.078-.697.307-.305.548-.67.706-1.073.203-.422.305-.885.297-1.353s-.125-.928-.341-1.343c-2.007-3.282-3.785-6.698-5.323-10.223-1.316-3.367-2.473-6.749-3.596-9.97-1.366-4.872-2.773-10.079-3.682-15.356-.868-4.942-1.59-10.078-2.288-15.044l-.442-3.149c-.444-1.964-2.307-3.221-4.464-2.918-1.256.679-2.541 2.378-2.449 4.225zm2.868-40.934c-.305.216-.569.756-.687 1.113-.703 3.066-1.171 6.182-1.398 9.32-.198 3.4-.395 6.806-.546 10.54-.099.522.164 1.161.404 1.635.382.426.904.701 1.472.776.567.074 1.142-.056 1.622-.368.229-.174.42-.395.559-.647.14-.252.225-.531.252-.818.032-3.382.229-6.788.544-10.545.125-1.537.267-2.908.228-4.421l.292-5.111c.03-.451-.101-.897-.368-1.261-.268-.364-.656-.622-1.095-.727l-.498.07c-.305.216-.447.397-.781.444zm24.627 105.467c-.392.305-.715.692-.945 1.132-.23.441-.362.927-.387 1.423-.094.925.158 1.852.706 2.603 2.195 2.389 4.555 4.759 6.898 6.965l.398.452c2.15 2.066 4.468 4.101 6.923 5.951.603.477 1.353.729 2.122.714.769-.016 1.509-.298 2.093-.798.35-.256.64-.586.85-.965.21-.38.334-.8.365-1.233.088-.459.071-.932-.052-1.383-.122-.451-.346-.869-.654-1.22-2.548-2.512-5.077-4.859-7.607-7.206l-2.15-2.065c-1.177-1.186-2.36-2.371-3.565-3.715-.39-.516-.912-.918-1.512-1.162-.599-.244-1.254-.321-1.893-.224-.581.115-1.125.366-1.59.731zm-4.777-32.762c-.38.155-.72.392-.998.694-.278.301-.487.66-.611 1.051-.405.732-.266 1.723.015 2.527l4.101 7.531.662 1.091.872 1.396c.45.78.871 1.396 1.299 2.011l.427.616 1.083 1.707.614.757c.422.616.826 1.068 1.248 1.684l.614.757c1.253 1.683 2.64 3.174 4.04 4.669.422.617 1.136.851 1.845 1.092.165-.023.516.095.686.071.35-.044.687-.158.992-.336.306-.177.572-.413.784-.695.213-.281.366-.603.453-.945.086-.342.102-.698.049-1.046-.076-.459-.251-.896-.515-1.279-2.874-3.771-5.568-7.676-8.072-11.702l-.684-1.255c-1.579-2.816-3.136-5.467-4.546-8.312-.156-.38-.394-.721-.696-.998-.303-.278-.663-.486-1.055-.609-.533-.269-1.139-.362-1.729-.265-.211-.311-.539-.265-.873-.218zm34.44 54.942c.232 1.654 1.766 2.957 3.59 2.701.418-.045.824-.175 1.19-.382.367-.207.687-.488.94-.824.254-.336.436-.721.535-1.13s.113-.835.041-1.25c-.117-.835-.561-1.589-1.235-2.096-.673-.508-1.521-.727-2.356-.61-.821.145-1.557.595-2.059 1.26s-.733 1.502-.646 2.331zm331.631-138.819-.86 4.683-.289 1.559c-.18 1.01-.436 2.006-.765 2.977l-.313 1.396c-2.717 9.505-5.465 18.841-8.493 27.369-.1.522-.358 1.066-.617 1.605-.529 1.091.01 2.539 1.246 2.868.352.124.708.235 1.207.165.408-.043.796-.201 1.119-.454.322-.254.567-.594.706-.98.858-2.315 1.863-4.824 2.692-7.308.835-2.479 1.646-5.128 2.317-7.584.571-1.94 1.001-3.686 1.577-5.626l.312-1.396c.665-2.46 1.307-5.08 1.984-7.537.883-3.334 1.578-6.81 2.439-11.487.062-.258.059-.526-.007-.783-.066-.256-.194-.493-.373-.688-.174-.228-.394-.417-.645-.555-.251-.139-.528-.224-.813-.251-1.355.017-2.253.819-2.424 2.027zm-17.668 51.121c-1.493 3.755-3.144 7.706-4.643 11.462-.64 1.441.113 3.189 1.532 3.665.545.264 1.043.194 1.536.125.334-.047.498-.07.808-.287.34-.142.647-.354.9-.621.254-.267.449-.585.574-.931 1.732-3.287 3.09-6.856 4.472-10.255l.522-1.089c.152-.375.228-.777.222-1.182-.005-.404-.092-.803-.254-1.174-.163-.371-.398-.705-.691-.983-.294-.279-.641-.495-1.019-.638-.546-.264-1.038-.194-1.537-.124-.949.474-1.87 1.111-2.422 2.032zm-1.596-14.974c-1.704 4.183-3.31 8.406-4.815 12.664-.235.709.069 1.683.778 1.918.708.235 1.683-.063 1.923-.779 1.594-4.271 3.38-8.409 4.973-12.686.405-.733-.063-1.677-.795-2.083-.194-.146-.522-.099-.856-.053-.493.07-.944.479-1.208 1.019zm-10.716 45.247-1.949 2.977c-3.066 4.646-6.271 9.491-9.478 14.33-.715.949-.53 2.268.443 3.148.54.265 1.084.523 1.746.43.499-.07 1.137-.333 1.402-.872 3.996-5.705 7.738-11.583 11.215-17.618.288-.381.382-.902.313-1.395-.07-.493-.31-.973-.685-1.255-.22-.177-.474-.308-.745-.386-.272-.078-.557-.101-.837-.067-.663.093-1.137.333-1.425.708zm-190.263-115.963c-1.511 11.155-3.624 22.219-6.331 33.146-.1.869.145 1.742.683 2.433.586.593 1.347 1.162 2.191 1.211.34-.048.528.099.856.052.663-.093 1.137-.333 1.59-.731.601-.603 1.023-1.362 1.216-2.192 1.171-4.9 2.554-10.666 3.586-16.557l.266-1.723c.448-1.928.738-3.888.868-5.862l-.024-.17c.149-1.366.314-2.573.292-3.921.125-1.537.056-3.219.181-4.755.031-.753-.193-1.495-.637-2.105-.421-.616-1.131-.857-1.822-.928-.164.023-.517-.1-.687-.076-1.325.186-2.204 1.158-2.228 2.178zm-.345-34.91c-.652.496-1.092 1.22-1.234 2.027.058 2.587.083 5.175.075 7.762-.002 2.368.3 4.52.462 6.859l.093.662c.116.827.56 1.608 1.129 2.036.365.306.789.535 1.245.674.456.14.935.186 1.409.136.433-.065.849-.215 1.224-.442.374-.228.7-.527.958-.88.268-.346.466-.742.58-1.164.114-.423.143-.864.085-1.297-.253-4.18-.617-9.199-.817-14.235-.209-1.489-1.369-2.51-2.764-2.822-.334.047-.522-.1-.857-.053-.638.263-1.118.504-1.588.737zm-51.854-298.0456-1.35 1.2003c-3.49 2.858-6.22 6.279-8.199 10.2759-.923 1.8158-2.016 3.6555-2.779 5.4547-1.81 3.9673-3.596 8.1045-5.405 12.0774-3.573 8.2688-6.432 16.772-9.295 25.2817-2.573 7.7681-4.967 15.5936-7.182 23.4716-2.936 10.374-6.042 20.777-8.977 31.156-2.843 9.852-4.975 19.951-6.749 30.167-3.406-1.387-6.956-2.574-10.361-3.954-6.598-2.451-13.055-5.089-19.512-7.727-6.979-2.732-14.269-5.259-21.388-7.804-3.484-1.153-6.931-2.413-10.336-3.779-3.435-1.429-6.94-2.685-10.501-3.762-.88-.217-1.94-.57-2.796-.623l-2.532.021-.329.046c-1.306.357-2.585.872-3.63 1.862-1.068.825-1.919 1.955-2.799 2.928-1.462 2.181-2.608 4.558-3.402 7.061-.811 2.649-1.6 5.462-2.037 8.393-.618 2.79-1.055 5.721-1.486 8.651-.242 1.894.201 3.858 1.266 5.395.343 3.67 2.848 7.031 6.253 8.418 8.091 3.419 16.418 6.129 24.909 8.822 7.97 2.593 15.945 5.19 24.061 7.595 15.19 4.622 30.425 9.571 45.632 14.358l.358.123 1.776.593c9.012 2.787 18.143 5.217 26.95 7.692l7.021 1.889c6.863 1.905 13.702 3.647 20.517 5.218 4.565 1.218 9.108 2.271 13.842 3.459l5.274 1.453c6.155 1.676 12.307 3.341 18.625 4.988l2.104.547 13.631 3.149s8.943 2.288 13.321 3.365c7.384 1.999 14.932 3.982 22.333 6.146l11.1 3.175c1.776.594 3.692 1 5.608 1.406 2.602.478 5.322.598 7.434-1.218 1.771-1.913 3.125-4.174 3.975-6.639.782-1.628 1.399-3.234 1.852-4.822.359-1.061.694-2.291.889-3.329.212-.873.236-1.893.12-2.72.054-.85-.232-1.653-.514-2.462-.467-.945-1.082-1.702-1.532-2.482-.715-.856-1.559-1.594-2.502-2.189-.948-.704-1.868-1.25-2.817-1.966-3.163-2.084-6.45-3.822-9.596-5.742-3.69-2.184-7.352-4.204-11.043-6.388-5.319-2.965-10.638-5.931-16.263-8.686-3.809-1.832-7.787-3.64-11.59-5.468.929-1.816 1.663-3.779 2.591-5.601 1.81-3.967 3.643-7.77 5.453-11.738 3.331-7.565 6.856-14.984 10.024-22.52 6.57-15.786 12.244-31.95 18.984-47.76 3.143-7.706 6.64-15.288 9.596-23.1357 1.887-4.6537 3.24-9.4056 4.44-14.1361.525-2.268.697-4.654.208-6.9469-.243-1.265-.746-2.4658-1.478-3.526-.731-1.0603-1.675-1.9569-2.772-2.6328-2.033-1.2387-4.23-2.4486-6.362-3.1594-7.547-3.1605-15.283-5.2839-23.088-7.8999-4.067-1.2877-8.186-2.9031-12.276-4.3551-3.739-1.3339-7.354-3.0201-11.24-4.166-10.096-3.2957-20.402-5.9081-30.848-7.8196-9.876-1.6551-19.74-3.3062-29.515-5.4779-1.395-.3121-2.814-.7884-4.402-1.2408-1.718-1.1544-3.609-2.0288-5.601-2.5908-.992-.324-2.047-.4074-3.077-.2431-1.021-.0298-1.994.2801-2.586.8715z"/><path d="m304.157 209.929c-5.123 4.256-10.019 8.778-14.669 13.547-4.243 4.65-8.14 9.419-11.821 14.498-3.68 5.079-7.39 9.989-10.901 15.044-3.517 5.05-6.518 10.201-9.654 15.539-1.903 3.304-3.805 6.615-5.537 9.901-1.193 2.362-2.403 4.553-3.59 6.915l-.792 1.635c-2.52 4.916-5.04 9.832-7.186 15.025-1.686 3.615-3.167 7.536-4.784 11.649-3.131 7.86-6.018 15.814-8.658 23.853-2.024 6.018-3.672 12.33-5.343 18.478-1.554 5.791-2.914 11.727-3.952 17.613-1.991 12.26-3.3 24.622-3.919 37.028-.352 5.962-.67 12.081-.499 18.144.08 6.571-.009 13.167.594 19.838.544 6.279 1.255 12.543 2.132 18.785l1.187 8.448c.442 3.143.884 6.291 1.632 9.229.846 3.595 1.856 7.166 2.867 10.742.911 2.909 1.993 5.801 3.08 8.691 1.081 2.88 2.468 5.56 3.696 8.257 1.228 2.698 2.591 5.209 3.955 7.719 1.603 2.986 3.205 5.965 5.143 8.904 1.72 2.628 3.611 5.232 5.637 7.649 2.031 2.417 4.204 4.647 6.4 7.041 2.388 2.534 5.077 4.859 7.63 7.37 4.275 3.961 8.72 7.898 13.446 11.449 2.455 1.849 5.056 3.516 7.657 5.177 2.601 1.656 5.723 3.411 8.653 5.032 2.934 1.609 5.818 2.895 8.724 4.346 2.912 1.45 5.771 2.567 8.801 3.66 5.367 2.116 11.022 3.856 16.653 5.426 6.529 1.958 13.18 3.553 19.832 5.153 2.789.618 5.749 1.213 8.703 1.814 2.96.6 5.755 1.218 8.662 1.485 12.303 1.651 24.688 2.617 37.098 2.894 6.601.088 13.376.147 19.954.065 5.897-.153 11.771-.47 17.622-.952 12.053-.851 24.177-2.387 36.278-4.088s24.207-3.402 35.981-6.24c12.647-2.621 24.949-6.544 36.795-11.252 6.008-2.735 11.773-5.973 17.233-9.681 4.889-3.143 9.48-6.726 13.717-10.704 9.202-8.834 17.519-18.545 24.832-28.996 3.798-5.43 7.414-11.009 10.48-16.844 2.972-5.315 5.593-10.747 8.377-16.203 5.508-10.616 10.644-21.423 15.397-32.398 2.451-5.409 4.877-10.987 6.783-16.66 2.029-6.025 3.87-12.191 5.542-18.333 1.383-5.772 2.444-11.494 3.306-17.36.845-6.026 1.309-12.34 1.303-18.419-.091-3.031-.152-5.892-.571-8.87l-.582-4.14c-.693-3.797-2.066-7.438-4.051-10.748-.843-1.233-1.698-2.464-2.857-3.485-1.16-1.02-2.261-1.703-3.709-2.348-.92-.388-1.868-.707-2.836-.953l-3.123-.572c-2.245-.36-4.426-.221-6.56.247-2.632.543-5.19 1.572-7.535 2.918.188-1.043.36-2.245.361-3.429.101-1.706.056-3.218.156-4.924-.091-1.841-.324-3.5-.744-5.295-.286-.808-.567-1.612-.87-2.58-.449-1.009-1.036-1.951-1.745-2.798-1.89-2.604-4.702-4.571-7.996-5.124-4.213-.813-8.576-.259-12.452 1.583-3.529 1.855-6.676 4.36-9.275 7.384-1.334 1.405-2.534 2.931-3.587 4.557l-.693 1.108c-.398-.452-.656-1.091-1.059-1.537-1.604-1.801-3.637-3.034-5.794-3.921-3.902-1.299-8.117-1.221-11.765.476-1.589.731-3.178 1.463-4.551 2.499-1.777 1.089-3.411 2.395-4.864 3.888-5.248 5.401-9.46 11.718-12.429 18.637-1.545 3.428-3.068 7.014-4.619 10.443-1.426 3.299-2.644 6.685-3.645 10.138-.547 2.104-1.077 4.378-1.607 6.647-.26 1.723-.525 3.452-.768 5.339-.318 3.519-.554 7.045-.708 10.575-.172 2.391 1.62 4.334 3.869 4.688 1.068.111 2.138-.191 2.989-.844.851-.654 1.42-1.609 1.588-2.67.289-1.559.578-3.118.843-4.847.165-1.207.5-2.438.859-3.499l.124-.352.329-1.23c.53-2.269 1.078-4.373 1.608-6.642 2.946-10.095 6.894-19.871 11.784-29.182 1.922-3.369 4.201-6.522 6.797-9.404 1.327-1.364 2.846-2.594 4.389-3.654.944-.473 1.894-.942 3.008-1.439l2.322-.326.686.077c.709.235 1.419.476 1.986.898l.381.288.194.146c.205.306.251.634.468.944l.278 1.982c-.316 3.416-.976 6.792-1.968 10.076l-1.168 2.532-.354 1.06-.146.188c-1.687 3.615-3.349 7.4-4.69 11.128-.859 2.315-1.547 4.606-2.077 6.875-.358 1.066-.547 2.109-.742 3.147-.221.89-.264 1.814-.125 2.72.116.827.403 1.636 1.011 2.393.592.593 1.16 1.021 1.892 1.42l.194.146c.747.371 1.594.489 2.414.337 1.326-.187 2.416-.848 3.267-1.984 1.645-2.76 2.902-5.813 3.837-8.814l.595-1.77c1.357-3.568 2.31-6.405 3.286-9.077l.27-.54.781-1.634.382-.897c2.744-5.839 5.655-11.597 8.729-17.268 1.803-2.789 3.799-5.431 5.987-7.938 1.327-1.365 2.846-2.595 4.389-3.655.78-.45 1.753-.754 2.557-1.035l2.984-.419c.522.1.851.054 1.371.142l.903.382.375.287c.381.282.615.757 1.019 1.208.21.306.257.64.491 1.11.356 1.301.542 2.626.558 3.975-.026 2.198-.222 4.419-.582 6.664s-.866 4.684-1.607 7.831c-.549 2.098-1.429 4.255-2.265 6.734-1.779 2.952-3.564 5.905-5.326 9.023-1.473 2.748-2.591 5.601-3.76 8.128l-1.498 3.761c-.209.667-.457 1.32-.741 1.958l-.1.522-.117.357-.19 1.038-.217.873c-.095.522-.002 1.184.069 1.682.232 1.654 1.268 3.027 2.88 3.649.732.4 1.582.453 2.584.313.827-.117 1.63-.403 2.229-.989.761-.749 1.436-1.58 2.014-2.477l.146-.194.112-.351.146-.194c2.65-5.108 5.134-10.301 7.449-15.569l.4-.732.124-.352c2.66-5.109 6.059-9.802 9.839-14.22 1.039-.989 2.248-2.002 3.649-2.88 1.091-.656 2.375-1.177 3.507-1.503l2.984-.42c1.536.125 2.913.266 4.308.579.353.123.873.212 1.254.499l.943.71 1.844 2.276c.895 1.561 1.457 3.174 2.023 4.78.706 3.787 1.264 7.762 1.131 11.661-.368 8.943-1.61 17.829-3.709 26.53-.429 1.752-.859 3.498-1.125 5.228l.123-.358.089-.521c-1.553 5.796-3.272 11.604-5.51 17.33-2.239 5.725-4.854 11.151-7.328 16.395-5.153 10.884-10.7 21.577-16.628 32.058l-.123.358-.688 1.107-.146.194.293-.382-.27.546-.259.539-.14.193-2.162 3.849-1.074 2.01-.547.92.288-.381-1.903 3.311c-1.577 2.939-3.258 5.821-5.039 8.642-2.924 4.464-5.565 8.554-8.577 12.35-5.714 7.573-11.801 14.855-18.241 21.821-3.104 3.139-6.572 6.156-10.057 9.013-3.508 2.687-7.211 5.228-11.099 7.64-4.839 2.874-10.076 5.297-15.36 7.39-5.947 2.187-11.945 4.047-16.513 5.191-17.668 4.512-35.572 8.044-53.63 10.58-5.306.746-10.94 1.538-16.932 2.207-5.992.674-12.481 1.419-19.182 1.853-5.196.378-10.399.659-15.606.842l-3.194.114.493-.07-2.533.016-2.532.021c-11.818.142-23.747-.549-36.577-1.616-12.341-1.301-24.549-3.654-36.49-7.033-7.19-1.859-14.451-4.216-21.435-6.948-3.764-1.514-7.486-3.13-11.162-4.847-2.733-1.321-5.414-2.747-8.038-4.275l-.545-.264c-2.958-1.778-5.202-3.322-7.422-4.696-2.226-1.379-4.159-3.135-6.238-4.696-4.182-3.298-8.105-7.136-11.982-10.644l-.586-.594c-1.962-1.918-4.538-4.599-6.945-7.298-1.41-1.59-2.718-3.267-3.916-5.022-1.065-1.542-1.727-2.633-2.576-3.865l-.421-.617c-1.365-2.247-2.646-4.544-3.844-6.885-1.153-2.206-2.334-4.575-3.562-7.272l-.234-.469c-1.204-2.499-2.294-5.051-3.269-7.648-1.058-2.721-1.953-5.471-2.846-8.216-.449-1.958-1.08-4.069-1.524-6.033-.496-2.298-1.009-4.755-1.358-7.241-.723-3.952-1.141-8.115-1.699-12.09l-.396-2.814c-.389-3.999-1.04-8.631-1.387-13.485-.271-4.35-.401-8.894-.648-14.264.102-12.51.742-24.761 1.985-36.415.695-6.158 1.522-12.3 2.481-18.423.336-2.414.86-4.682 1.367-7.115l.307-1.395c.718-3.311 1.437-6.617 2.32-9.952l.195-1.037c1.676-6.149 3.435-11.628 5.058-16.926s3.863-11.012 5.816-16.35l.269-.546c1.828-4.992 4.045-10.87 6.636-16.472 2.596-5.602 5.052-11.012 8.072-17.176 3.284-6.709 7.183-13.846 11.629-21.902l.429-.569c1.903-3.304 3.805-6.615 5.895-9.779 2.637-4.083 5.302-8.003 7.962-11.922l.405-.733c2.231-3.357 4.468-6.708 7.033-10.112l3.991-5.29c1.139-1.511 2.466-2.876 3.792-4.246l.146-.194c3.111-3.134 6.267-5.945 9.277-8.562l.757-.614c1.303-1.096 2.14-2.647 2.342-4.337.202-1.691-.246-3.395-1.254-4.767-.718-.889-1.657-1.574-2.724-1.987-1.066-.413-2.222-.538-3.352-.364-2.961.584-3.906 1.052-4.668 1.667z"/><path d="m409.637 238.679c-1.573.713-2.838 1.969-3.562 3.537-.533 1.121-.653 2.393-.338 3.593.07.499.304.974.373 1.467.801 2.081 1.626 4.333 2.256 6.439l.544 1.442c.515 1.279.848 2.421 1.198 3.718l.07.498c.701 2.604 1.266 5.394 1.826 8.186.496 2.297.799 4.449 1.125 6.771l.278 1.982c.981 5.772 1.796 11.571 2.444 17.389 1.22 11.147 1.577 22.068 2.111 34.327.116.827.074 1.676.02 2.526l.07.499-.001 1.184c.001 9.625-.191 20.295-.696 32.353-.223 5.604-.57 11.56-.893 17.686-.439 5.299-.902 10.428-1.364 15.563l-.054.851-.505 5.978c-.414 4.285-.829 8.564-1.22 13.008l-.095.521c-.196 2.222 1.268 4.211 3.495 4.406 1.044.194 2.176-.133 2.938-.748.789-.655 1.319-1.569 1.497-2.578 1.243-5.579 2.135-11.271 3.048-16.81.915-5.534 1.801-11.225 2.386-16.718 1.472-11.178 2.258-22.433 3.037-33.693.393-5.627.786-11.255 1.014-16.859.159-6.103.125-12.346-.068-18.567-.205-6.225-.357-12.111-.884-18.284-.317-5.869-1.108-11.498-1.923-17.296-.861-6.127-1.892-12.23-3.245-18.288-1.663-6.933-3.807-13.741-6.415-20.377-.616-1.329-1.642-2.425-2.928-3.126s-2.763-.97-4.214-.767c-.217-.31-.686-.076-1.325.187z"/><path d="m404.236 425.2c.654 3.46 3.891 6.036 7.368 5.548 8.484-1.02 17.172-1.733 25.508-2.569l10.184-.923c11.678-1.133 23.702-2.148 35.614-2.811 7.885-.433 15.582-1.006 23.45-1.604l4.349-.276 4.521-.295c3.013-.256 5.856-.488 8.887-.573l1.184.001c4.022-.225 8.377-.502 12.522-1.085.912-.152 1.749-.595 2.387-1.264.638-.668 1.042-1.526 1.151-2.443.094-.55.058-1.115-.105-1.648-.164-.534-.449-1.022-.835-1.425-.638-.927-1.722-1.45-2.765-1.638l-.686-.077c-2.585-.312-5.111-.292-7.649-.271-2.77.022-5.54-.04-8.306-.183-5.587-.064-11.173-.122-16.742-.015l.686.077c-12.334.041-24.598.581-37.026 1.144-11.601.453-23.279 1.586-34.788 2.695-6.66.763-13.5 1.395-20.155 2.157l-3.342.302c-3.482.49-5.737 3.676-5.412 7.176zm106.044 20.731c.14.996.608 1.941 1.528 2.487.755.57 1.799.764 2.819.788l1.349-.016.996-.141c3.855-.083 7.706.281 11.476 1.084.71.241 1.588.453 2.315.859.55.257.949.709 1.33.997l.187.141.07.498c-.147.188-.101.517-.241.709l-1.28 1.699c-.903.803-1.965 1.627-3.04 2.448-1.939.619-3.881 1.227-5.611 2.146-.786.445-1.566.896-2.54 1.2l-.169.024c-.69.401-1.361.833-2.013 1.293-1.044.996-1.685 2.431-1.498 3.762.139.991.584 1.771 1.345 2.34.44.357.948.622 1.493.777.544.156 1.115.2 1.677.129 1.49-.21 3.103-.771 4.528-1.48l.328-.046c1.471-.38 2.937-.753 4.596-.986 1.161-.164 2.322-.327 3.337-.296l2.062.212.353.124.38.282.188.146c.023.165.216.305.239.469-.03 1.021-.202 2.223-.554 3.289-1.171 3.71-2.721 7.138-4.596 10.606-2.026 3.663-3.998 6.475-5.8 9.263-2.284 3.024-4.749 5.9-7.407 8.641l-.74.779c-2.089 1.98-4.031 3.771-5.856 5.212-2.135 1.651-4.271 3.302-6.622 4.649-2.182 1.317-4.411 2.306-6.639 3.295-2.388 1.011-4.973 1.883-8.052 2.818-3.102.776-6.233 1.384-9.358 1.99-3.148.443-6.49.745-10.869.852l-1.348.022-1.185-.006c-.976-.006-1.95-.093-2.912-.261l-1.371-.142c-2.274-.177-4.53-.538-6.746-1.079l-1.044-.194c-1.061-.359-2.268-.524-3.358-1.047-2.053-.628-4.074-1.359-6.053-2.192-1.707-.654-3.388-1.375-5.039-2.162l-.545-.258c-1.089-.523-2.009-1.069-3.099-1.591-3.66-2.343-7.269-4.765-10.825-7.262-4.352-3.006-8.533-6.253-12.523-9.725-1.184-1.199-2.319-2.446-3.401-3.737-1.037-1.379-2.079-2.751-2.95-4.148-1.177-1.91-2.192-3.915-3.037-5.994-1.009-2.296-1.851-4.661-2.519-7.078-.293-.746-.742-1.422-1.316-1.981-.575-.56-1.262-.99-2.016-1.263-1.501-.59-3.172-.573-4.661.045-1.489.619-2.68 1.791-3.321 3.271-.586 1.521-.592 3.206-.016 4.731 1.227 3.882 2.776 7.717 4.66 11.506 2.123 4.264 4.716 8.288 7.596 11.937 3.215 3.602 6.71 6.823 10.348 9.863 5.172 4.338 10.114 8.199 15.146 11.545.756.57 1.682 1.115 2.601 1.662l1.277.663c1.489.975 3.123 1.756 4.588 2.566l1.441.641c2.531 1.163 5.039 2.161 7.547 3.16l1.254.499c.897.383 1.776.6 2.649.812l1.231.335c1.23.33 2.268.524 3.498.859l.17-.023.709.235 1.559.289c3.11.552 6.261.843 9.419.87l1.355-.017c1.682-.069 3.552.004 5.398-.089 2.012-.109 3.671-.342 5.353-.411l1.489-.209c2.492-.351 4.954-.87 7.892-1.618 6.532-1.593 12.813-3.822 18.601-7.176 3.297-1.809 6.4-3.769 9.293-6.029 2.445-1.868 4.84-4.058 7.046-6.395 10.498-10.767 18.455-23.873 22.872-38.173.336-1.231.671-2.462.813-3.833.36-2.245.222-4.42-.409-6.525-.317-1.128-.81-2.199-1.462-3.173-.655-.966-1.459-1.822-2.383-2.535-.756-.569-1.488-.974-2.221-1.38l-.17.024c.669-1.278 1.146-2.69 1.459-4.085l.002-2.368c.053-.851-.374-1.466-.655-2.275-.784-1.723-2.045-3.186-3.635-4.213-1.515-1.108-3.236-1.9-5.063-2.332-2.03-.562-4.119-.89-6.224-.978-4.215-.249-8.443-.164-12.645.252-1.683 1.253-2.946 3.117-2.83 5.133zm22.187 6.34.054-.851c.046.329-.077.687-.054.851zm-.048.85c.024.169-.123.358-.1.522zm-.264.545c-.14.193-.258.544-.399.732zm-227.03-193.549c-1.543 1.066-2.47 2.888-2.714 4.77-.456 6.174-.319 12.377.409 18.524.163 1.161.467 2.129.794 3.267l.093.662.987 3.407c.544 1.442 1.439 3.009 2.288 4.24 1.957 2.977 4.826 5.24 8.177 6.45 1.798.758 3.715 1.164 5.748 1.214 1.185.006 2.539-.011 3.717-.015l.498-.07c.997-.14 1.801-.42 2.774-.724l.639-.263c1.795-.615 3.495-1.478 5.05-2.564 1.707-1.083 3.226-2.313 4.529-3.847 3.11-3.139 5.442-7.013 7.058-11.126 1.123-2.854 1.911-5.668 2.506-8.627.46-2.767.774-5.34.877-8.225.053-.775-.13-1.547-.527-2.216-.396-.668-.986-1.2-1.691-1.525-.595-.262-1.252-.346-1.893-.243-1.161.164-2.399 1.013-2.752 2.073-.523 1.09-.859 2.315-1.381 3.405l-1.381 3.405c-.764 1.793-1.692 3.615-2.62 5.432l-.282.38c-.693 1.108-1.356 2.385-2.214 3.516-.997 1.324-2.165 2.672-3.158 3.99-1.044.995-2.258 2.009-3.484 2.857-.923.488-1.882.905-2.868 1.246l-1.495.21c-.523-.1-.851-.054-1.372-.142-.522-.1-.896-.382-1.253-.5-.358-.122-.569-.428-.944-.716-.38-.281-.404-.445-.592-.592-.473-.944-.776-1.912-1.251-2.862-.396-1.63-.629-3.289-.862-4.943-.233-1.659-.272-3.172-.318-4.69l-.093-.657c-.02-2.532.128-5.088.278-7.638.191-1.905-.318-3.814-1.43-5.371-2.483-3.203-6.955-3.758-9.853-1.491zm-61.194 7.255c-6.28 1.05-12.389 2.076-18.622 3.46-12.811 2.644-25.605 5.452-38.253 9.257-3.084.941-6.14 2.046-9.2 3.152-3.033 1.269-6.041 2.708-8.868 4.289-2.816 1.574-5.971 3.201-8.769 4.946-1.232.848-2.328 1.511-3.555 2.359-1.075.842-2.076 1.774-2.992 2.788-.711.937-1.07 1.998-1.428 3.064-.29 1.341-.154 2.739.389 3.999.924 1.73 1.983 3.267 3.524 4.575s3.21 2.419 5.008 3.177c1.658.95 3.264 1.568 5.063 2.331 2.859 1.117 5.554 2.257 8.561 3.186 6.275 1.976 12.699 3.444 19.21 4.391 3.459.53 7.08 1.031 10.703 1.539 3.622.507 7.243 1.003 10.843 1.346 3.241.22 6.483.44 9.917.8 4.002.509 8.04.676 12.07.498 1.429-.206 2.752-.873 3.767-1.9 1.016-1.026 1.669-2.356 1.86-3.787.178-1.704-.302-3.41-1.341-4.771-1.04-1.362-2.56-2.274-4.25-2.551-.878-.211-1.728-.259-2.584-.312l-2.221-.191-2.562-.148c-2.052-.219-4.114-.432-6.031-.838l-1.893-.242c-5.164-.626-10.299-1.088-15.269-1.573l-7.174-.51c-3.078-.244-6.319-.464-9.396-.701-4.959-.491-9.878-1.323-14.723-2.493-3.53-1.015-6.985-2.279-10.336-3.784l-1.442-.641c3.461-1.837 6.921-3.675 10.598-5.208 3.982-1.738 7.987-3.317 12.034-4.561 9.123-2.466 18.481-4.457 27.487-6.566l8.525-1.873c9.335-2.155 18.998-4.356 28.589-5.878l8.126-1.142 5.494-.599c.784-.107 1.54-.368 2.223-.769.683-.4 1.28-.932 1.757-1.564s.824-1.352 1.022-2.119c.197-.767.241-1.565.128-2.349-.465-3.313-3.494-5.589-6.806-5.124-5.166.553-10.137 1.252-15.279 1.974l-4.473.629zm178.738 328.678c.396 2.814.621 5.652.871 8.66.144 2.174.276 4.35.274 6.718-.052 5.37-.2 10.739-.445 16.104-.269 5.275-.164 10.832-.275 16.08-.287 11.19-.738 22.398-.504 33.677.063 1.683-.009 3.553.059 5.229-.079 3.055.029 6.244-.05 9.299-.096 1.699-.033 3.382-.152 4.918-.008 1.179-.009 2.362-.174 3.569-.616.422-1.232.849-1.877 1.107l-2.628 1.721c-1.707 1.083-3.414 2.172-5.291 3.278-3.437 2.002-6.663 4.315-9.89 6.622-3.221 2.312-6.735 5-9.938 7.477-1.513 1.229-3.033 2.453-4.388 3.66-1.825 1.435-3.463 3.016-5.24 4.79-.453.569-.744 1.25-.842 1.97-.098.721.001 1.455.285 2.124.285.669.745 1.249 1.332 1.678.587.43 1.279.693 2.003.761 1.037.189 2.174-.138 3.101-.776 1.707-1.083 3.391-2.331 5.098-3.419l1.848-1.27 2.611-1.886 3.841-2.74 2.916-2.096c3.391-2.336 6.928-4.86 10.483-7.213l.763-.615c2.181-1.323 4.171-2.781 6.352-4.104 1.068-.825 2.159-1.487 3.227-2.312 1.871-1.107 3.321-2.829 4.249-4.646.382-.902.594-1.775.647-2.626.095-.521.189-1.042.266-1.729.142-1.371.314-2.573.456-3.944.336-2.415.509-4.801.658-7.357.686-10.733 1.399-21.308 2.091-32.041.416-5.464.639-11.067.726-16.485.088-5.417.147-10.997.205-16.578-.012-4.895-.024-9.79-.06-14.855-.036-5.059-.518-9.72-1.17-14.358-.148-1.542-.893-2.966-2.075-3.967-1.183-1-2.71-1.5-4.256-1.391-1.543.145-2.969.888-3.973 2.07-1.003 1.183-1.504 2.71-1.397 4.257.146.184.237.405.263.639z"/><path d="m421.368 702.291c-1.458 4.085-2.91 8.176-4.386 12.096l-.358 1.067c-1.264 3.047-2.434 6.757-3.575 10.636-1.148 3.874-2.554 8.293-3.467 12.642l-.335 1.231c-.212.873-.265 1.729-.477 2.602-.601 2.955-1.033 5.885-.966 8.746-.147 1.252.203 2.512.975 3.509.771.998 1.904 1.652 3.153 1.824 1.009.118 2.03-.099 2.903-.619.874-.519 1.552-1.312 1.93-2.255.406-.733.624-1.606 1.005-2.509l1.788-5.315c.476-1.418.811-2.649 1.311-3.903.835-2.479 1.835-4.981 2.646-7.63l1.358-3.569 4.98-13.872c1.216-3.381 2.457-6.593 3.509-9.951.329-.804.495-1.665.488-2.533-.006-.869-.184-1.727-.523-2.527-.578-1.324-1.571-2.424-2.831-3.132-1.26-.707-2.716-.985-4.147-.789-2.105.636-4.099 2.1-4.981 4.251z"/><path d="m424.621 697.78c-2.869 2.43-3.448 6.733-1.182 9.625 1.861 2.435 3.752 5.045 5.308 7.696.445.781.872 1.396 1.152 2.2 2.944 5.332 5.728 10.68 8.132 15.747l1.153 2.2c.965 2.064 2.123 4.263 3.088 6.322.497 1.114.989 2.228 1.462 3.172l1.293 3.197c.52 1.278 1.204 2.533 1.883 3.789.971 2.058 3.168 3.267 5.325 2.964.693-.091 1.357-.332 1.946-.706.59-.374 1.091-.872 1.468-1.46.686-1.03.99-2.268.86-3.499-.675-4.801-1.684-9.556-3.35-14.219-1.266-4.045-2.783-8.007-4.543-11.863l-.73-1.583c-1.517-3.365-3.273-6.617-5.254-9.731-1.346-2.346-2.669-4.527-4.319-6.657-1.651-2.13-2.927-3.977-4.391-5.972-1.463-1.988-3.948-2.823-6.434-2.474-.85-.048-2.128.473-2.867 1.252z"/><path d="m377.901 731.03c-.147.188-.124.352-.265.539-.617 1.611-.671 3.646.059 5.229.731 1.584 1.914 2.769 3.52 3.392 1.441.64 3.029 1.093 4.471 1.733 1.089.523 2.009 1.069 3.099 1.592l.187.141c1.658.95 3.334 2.066 5.009 3.182 1.892 1.42 3.456 2.892 5.013 4.36l.211.311c1.206 1.349 2.571 2.676 3.776 4.025.592.592 1.043 1.378 1.634 1.97.802.898 1.458 1.99 2.265 2.887 1.037 1.378 2.502 2.183 4.254 2.613.521.094.85.048 1.348-.022.997-.141 2.129-.467 3.079-.936l1.114-.497c1.923-.778 4.029-1.409 6.303-2.069 2.276-.655 4.744-1.17 6.896-1.472l.997-.14c1.982-.279 4.168-.418 5.844-.487 3.87-.006 7.728.414 11.506 1.253l2.462.671c.717.223 1.475.288 2.221.19.334-.047.668-.094.973-.304 1.015-.46 1.809-1.299 2.212-2.338.222-.685.3-1.409.228-2.125-.072-.717-.291-1.41-.645-2.037-.474-.653-1.133-1.148-1.892-1.421-2.803-1.142-5.701-2.035-8.661-2.669l-1.917-.406c-3.702-.659-7.476-.81-11.219-.45l-1.161.163c-1.325.186-2.82.396-4.286.77-1.799.426-3.577 1.011-5.359 1.602l-.803.28-2.58.871-2.089.796-2.562 1.036c-.725-1.584-1.292-3.197-1.853-4.804-.778-1.918-1.867-3.624-2.949-5.325-.862-1.233-1.817-2.398-2.857-3.485-2.542-2.555-5.409-4.763-8.528-6.568-.925-.546-2.039-1.238-3.123-1.761l-2.554-1.327c-1.761-.775-3.552-1.481-5.367-2.116-1.102-.384-2.278-.509-3.436-.366-1.823.256-3.647 1.696-4.575 3.519zm-50.028-138.207c.395 2.814.627 5.652.881 8.653.133 2.181.272 4.356.269 6.718-.088 5.418-.17 10.834-.444 16.11-.275 5.276-.17 10.833-.276 16.08-.286 11.191-.738 22.399-.509 33.679.068 1.682-.004 3.551.059 5.229-.074 3.047.034 6.243-.045 9.297-.096 1.7-.033 3.377-.152 4.918-.007 1.179-.008 2.363-.174 3.57-.616.421-1.231.849-1.877 1.107l-2.628 1.72c-1.707 1.083-3.414 2.166-5.29 3.279-3.438 2.002-6.664 4.314-9.891 6.621-3.22 2.312-6.735 5.001-9.938 7.478-1.513 1.229-3.033 2.453-4.388 3.659-1.825 1.435-3.462 3.016-5.24 4.79-.452.569-.743 1.25-.841 1.971-.098.72 0 1.454.285 2.123.284.669.744 1.249 1.331 1.679.587.429 1.279.692 2.003.761 1.037.189 2.175-.139 3.101-.777 1.708-1.083 3.391-2.336 5.098-3.419l1.848-1.27 2.61-1.891 3.843-2.735 2.916-2.096c3.39-2.335 6.927-4.859 10.482-7.218l.763-.61c2.182-1.323 4.171-2.78 6.353-4.103 1.068-.826 2.158-1.487 3.226-2.313 1.871-1.106 3.321-2.829 4.249-4.651.382-.897.594-1.769.648-2.62.094-.521.188-1.043.259-1.728.148-1.372.314-2.574.462-3.946.336-2.415.509-4.801.658-7.356.686-10.733 1.4-21.308 2.091-32.042.416-5.463.639-11.067.727-16.484.087-5.417.14-10.997.205-16.578-.012-4.895-.026-9.796-.061-14.855s-.517-9.721-1.169-14.358c-.147-1.544-.893-2.969-2.077-3.97-1.184-1.002-2.713-1.5-4.26-1.388-1.542.147-2.967.89-3.969 2.072s-1.503 2.709-1.395 4.254c.046.329.064.5.257.64z"/><path d="m326.578 699.063c-1.459 4.086-2.911 8.176-4.387 12.096l-.358 1.067c-1.263 3.047-2.434 6.757-3.58 10.637-1.142 3.874-2.554 8.293-3.461 12.642l-.335 1.231c-.218.873-.266 1.723-.478 2.602-.601 2.954-1.032 5.885-.971 8.746-.147 1.253.204 2.514.977 3.511s1.906 1.651 3.157 1.821c1.009.118 2.029-.099 2.903-.618.874-.52 1.552-1.312 1.93-2.256.405-.732.617-1.611.999-2.508l1.793-5.316c.477-1.418.806-2.648 1.311-3.903.83-2.478 1.834-4.987 2.647-7.63l1.357-3.569 4.98-13.871c1.217-3.382 2.457-6.593 3.51-9.952.617-1.605.689-3.475-.042-5.064-.578-1.322-1.571-2.42-2.829-3.127s-2.713-.984-4.143-.79c-2.105.637-4.099 2.101-4.98 4.251z"/><path d="m329.83 694.553c-2.869 2.43-3.448 6.732-1.189 9.62 1.868 2.439 3.758 5.044 5.315 7.7.445.781.872 1.397 1.152 2.2 2.943 5.326 5.728 10.681 8.132 15.748l1.152 2.199c.965 2.059 2.124 4.264 3.083 6.323.503 1.113.994 2.222 1.468 3.172l1.292 3.196c.521 1.278 1.2 2.534 1.884 3.789.965 2.059 3.168 3.268 5.325 2.965.691-.092 1.354-.333 1.943-.707s1.089-.872 1.466-1.458c.687-1.031.993-2.268.865-3.5-.675-4.802-1.684-9.557-3.356-14.224-1.265-4.043-2.78-8.004-4.537-11.858l-.73-1.584c-1.519-3.367-3.277-6.62-5.261-9.735-1.279-2.317-2.72-4.54-4.312-6.653-1.652-2.135-2.928-3.983-4.391-5.971-1.463-1.989-3.948-2.823-6.434-2.474-.537.005-1.068.119-1.561.334-.492.215-.937.527-1.306.918z"/><path d="m283.111 727.802c-.146.188-.123.352-.264.54-.618 1.605-.673 3.64.059 5.229.731 1.583 1.908 2.769 3.52 3.391 1.441.641 3.029 1.093 4.47 1.734 1.084.523 2.01 1.069 3.099 1.591l.188.141c1.652.952 3.333 2.067 5.009 3.182 1.891 1.421 3.449 2.894 5.013 4.36l.211.311c1.2 1.35 2.57 2.676 3.776 4.025.591.593 1.037 1.379 1.628 1.971.802.898 1.463 1.989 2.265 2.887 1.042 1.372 2.507 2.183 4.259 2.612.522.094.85.048 1.348-.022.997-.14 2.129-.467 3.079-.941l1.256-.679c1.923-.778 4.033-1.415 6.303-2.069 2.275-.661 4.743-1.175 6.895-1.477l.997-.141c1.987-.279 4.168-.418 5.845-.48 3.87-.01 7.729.411 11.506 1.253l2.46.664c.718.228 1.476.295 2.222.196.34-.048.668-.094.974-.304.949-.474 1.853-1.277 2.212-2.338.222-.685.3-1.408.228-2.125-.072-.716-.292-1.41-.646-2.037-.475-.653-1.133-1.15-1.892-1.426-2.804-1.138-5.702-2.029-8.66-2.664l-1.917-.406c-3.702-.659-7.476-.81-11.219-.45l-1.161.163c-1.325.187-2.82.397-4.286.77-1.801.421-3.577 1.011-5.354 1.596l-.809.281-2.58.871-2.082.8-2.569 1.037c-.693-1.573-1.312-3.178-1.853-4.81-.777-1.911-1.86-3.619-2.943-5.326-.863-1.232-1.818-2.397-2.857-3.484-2.544-2.555-5.413-4.763-8.534-6.568-.926-.545-2.033-1.233-3.122-1.755l-2.555-1.333c-1.799-.758-3.591-1.516-5.368-2.115-1.102-.38-2.277-.503-3.434-.361-1.8.421-3.812 1.72-4.717 3.706z"/></g></svg>